<?xml version="1.0" standalone="no"?>
<svg
  width="600"
  height="600"
  viewBox="0 0 600 600"
  xmlns="http://www.w3.org/2000/svg"
>
  <g transform="translate(300,300)">
    <path d="M116.3,-174.4C161.7,-151.9,216.8,-138,227.4,-106.3C238.1,-74.6,204.2,-25.1,187.3,20.3C170.4,65.7,170.6,106.8,153.8,142.1C137,177.3,103.1,206.7,65.9,211.9C28.6,217.2,-12,198.3,-48.1,180.2C-84.2,162.2,-115.8,144.9,-141.2,119.9C-166.5,95,-185.7,62.2,-183.9,30.5C-182.1,-1.1,-159.3,-31.7,-142.1,-63.1C-125,-94.5,-113.6,-126.8,-90.9,-159.5C-68.1,-192.3,-34.1,-225.7,0.7,-226.8C35.5,-227.9,71,-196.8,116.3,-174.4Z" fill="#FFB4BC" />
  </g>
</svg>
  